<svg width="100" height="100" viewBox="0 0 100 100" fill="none" xmlns="http://www.w3.org/2000/svg">
<circle cx="50" cy="50" r="50" fill="#479EF7"/>
<path fill-rule="evenodd" clip-rule="evenodd" d="M37.1967 37.1967C35 39.3934 35 42.9289 35 50C35 57.0711 35 60.6066 37.1967 62.8033C39.3934 65 42.9289 65 50 65C57.0711 65 60.6066 65 62.8033 62.8033C65 60.6066 65 57.0711 65 50C65 42.9289 65 39.3934 62.8033 37.1967C60.6066 35 57.0711 35 50 35C42.9289 35 39.3934 35 37.1967 37.1967ZM52.2321 41.6689C52.8322 41.8297 53.1884 42.4466 53.0276 43.0467L49.1453 57.5356C48.9845 58.1357 48.3676 58.4919 47.7675 58.3311C47.1673 58.1703 46.8112 57.5534 46.972 56.9532L50.8543 42.4644C51.0151 41.8642 51.6319 41.5081 52.2321 41.6689ZM54.4545 44.7045C54.8938 44.2652 55.6062 44.2652 56.0455 44.7045L56.358 45.017C57.311 45.9699 58.1057 46.7646 58.6518 47.4803C59.2281 48.2357 59.6324 49.0338 59.6324 50C59.6324 50.9662 59.2281 51.7643 58.6518 52.5197C58.1057 53.2354 57.3111 54.03 56.3581 54.9829L56.0455 55.2955C55.6062 55.7348 54.8938 55.7348 54.4545 55.2955C54.0152 54.8562 54.0152 54.1438 54.4545 53.7045L54.7119 53.4472C55.7344 52.4247 56.4195 51.7361 56.863 51.1549C57.2866 50.5997 57.3824 50.2764 57.3824 50C57.3824 49.7236 57.2866 49.4004 56.863 48.8451C56.4195 48.2639 55.7344 47.5753 54.7119 46.5529L54.4545 46.2955C54.0152 45.8562 54.0152 45.1439 54.4545 44.7045ZM43.9548 44.7045C44.3941 44.2652 45.1064 44.2652 45.5458 44.7045C45.9851 45.1438 45.9851 45.8562 45.5458 46.2955L45.2884 46.5529C44.2659 47.5753 43.5808 48.2639 43.1373 48.8451C42.7137 49.4004 42.6179 49.7236 42.6179 50C42.6179 50.2764 42.7137 50.5997 43.1373 51.1549C43.5808 51.7361 44.2659 52.4247 45.2884 53.4472L45.5458 53.7045C45.9851 54.1438 45.9851 54.8562 45.5458 55.2955C45.1064 55.7348 44.3941 55.7348 43.9548 55.2955L43.6423 54.983C42.6893 54.03 41.8946 53.2354 41.3485 52.5197C40.7722 51.7643 40.3679 50.9662 40.3679 50C40.3679 49.0338 40.7722 48.2357 41.3485 47.4803C41.8946 46.7646 42.6893 45.97 43.6423 45.017L43.9548 44.7045Z" fill="white"/>
</svg>
